<svg xmlns="http://www.w3.org/2000/svg" viewBox="0 0 706 267.7326013071895" width="706" height="267.7326013071895" role="img" aria-label="Basbaas Somali Cuisine"><rect x="0" y="0" width="706" height="267.7326013071895" fill="#2A6334"></rect><g transform="translate(40,40)"><g transform="translate(0,0) scale(1)"><defs><mask id="wm-3" maskUnits="userSpaceOnUse" x="-12" y="-12" width="650" height="124"><g transform="translate(0,0)"><path d="M6 0 L54 0 L68 14 L68 34 L54 48 L30 50 L54 52 L72 66 L72 86 L54 100 L6 100 Z M28 14 L46 14 L54 22 L54 32 L46 40 L28 40 Z M28 60 L48 60 L56 68 L56 80 L48 88 L28 88 Z" fill="#fff" fill-rule="evenodd"></path><path d="M6 0 L54 0 L68 14 L68 34 L54 48 L30 50 L54 52 L72 66 L72 86 L54 100 L6 100 Z M28 14 L46 14 L54 22 L54 32 L46 40 L28 40 Z M28 60 L48 60 L56 68 L56 80 L48 88 L28 88 Z" fill="none" stroke="#000" stroke-width="10.8" stroke-linejoin="miter" stroke-miterlimit="6"></path><path d="M6 0 L54 0 L68 14 L68 34 L54 48 L30 50 L54 52 L72 66 L72 86 L54 100 L6 100 Z M28 14 L46 14 L54 22 L54 32 L46 40 L28 40 Z M28 60 L48 60 L56 68 L56 80 L48 88 L28 88 Z" fill="none" stroke="#fff" stroke-width="7.2" stroke-linejoin="miter" stroke-miterlimit="6"></path></g><g transform="translate(89,0)"><path d="M47 0 L53 0 L90 100 L70 100 L62 78 L38 78 L30 100 L10 100 Z M50 17 L58 64 L42 64 Z" fill="#fff" fill-rule="evenodd"></path><path d="M47 0 L53 0 L90 100 L70 100 L62 78 L38 78 L30 100 L10 100 Z M50 17 L58 64 L42 64 Z" fill="none" stroke="#000" stroke-width="10.8" stroke-linejoin="miter" stroke-miterlimit="6"></path><path d="M47 0 L53 0 L90 100 L70 100 L62 78 L38 78 L30 100 L10 100 Z M50 17 L58 64 L42 64 Z" fill="none" stroke="#fff" stroke-width="7.2" stroke-linejoin="miter" stroke-miterlimit="6"></path></g><g transform="translate(182,0)"><path d="M18 0 L84 0 L84 22 L40 22 L28 22 L28 39 L72 39 L84 51 L84 88 L66 100 L0 100 L0 78 L44 78 L56 78 L56 61 L12 61 L0 49 L0 12 Z" fill="#fff" fill-rule="nonzero"></path><path d="M18 0 L84 0 L84 22 L40 22 L28 22 L28 39 L72 39 L84 51 L84 88 L66 100 L0 100 L0 78 L44 78 L56 78 L56 61 L12 61 L0 49 L0 12 Z" fill="none" stroke="#000" stroke-width="10.8" stroke-linejoin="miter" stroke-miterlimit="6"></path><path d="M18 0 L84 0 L84 22 L40 22 L28 22 L28 39 L72 39 L84 51 L84 88 L66 100 L0 100 L0 78 L44 78 L56 78 L56 61 L12 61 L0 49 L0 12 Z" fill="none" stroke="#fff" stroke-width="7.2" stroke-linejoin="miter" stroke-miterlimit="6"></path></g><g transform="translate(271,0)"><path d="M6 0 L54 0 L68 14 L68 34 L54 48 L30 50 L54 52 L72 66 L72 86 L54 100 L6 100 Z M28 14 L46 14 L54 22 L54 32 L46 40 L28 40 Z M28 60 L48 60 L56 68 L56 80 L48 88 L28 88 Z" fill="#fff" fill-rule="evenodd"></path><path d="M6 0 L54 0 L68 14 L68 34 L54 48 L30 50 L54 52 L72 66 L72 86 L54 100 L6 100 Z M28 14 L46 14 L54 22 L54 32 L46 40 L28 40 Z M28 60 L48 60 L56 68 L56 80 L48 88 L28 88 Z" fill="none" stroke="#000" stroke-width="10.8" stroke-linejoin="miter" stroke-miterlimit="6"></path><path d="M6 0 L54 0 L68 14 L68 34 L54 48 L30 50 L54 52 L72 66 L72 86 L54 100 L6 100 Z M28 14 L46 14 L54 22 L54 32 L46 40 L28 40 Z M28 60 L48 60 L56 68 L56 80 L48 88 L28 88 Z" fill="none" stroke="#fff" stroke-width="7.2" stroke-linejoin="miter" stroke-miterlimit="6"></path></g><g transform="translate(360,0)"><path d="M47 0 L53 0 L90 100 L70 100 L62 78 L38 78 L30 100 L10 100 Z M50 17 L58 64 L42 64 Z" fill="#fff" fill-rule="evenodd"></path><path d="M47 0 L53 0 L90 100 L70 100 L62 78 L38 78 L30 100 L10 100 Z M50 17 L58 64 L42 64 Z" fill="none" stroke="#000" stroke-width="10.8" stroke-linejoin="miter" stroke-miterlimit="6"></path><path d="M47 0 L53 0 L90 100 L70 100 L62 78 L38 78 L30 100 L10 100 Z M50 17 L58 64 L42 64 Z" fill="none" stroke="#fff" stroke-width="7.2" stroke-linejoin="miter" stroke-miterlimit="6"></path></g><g transform="translate(453,0)"><path d="M47 0 L53 0 L90 100 L70 100 L62 78 L38 78 L30 100 L10 100 Z M50 17 L58 64 L42 64 Z" fill="#fff" fill-rule="evenodd"></path><path d="M47 0 L53 0 L90 100 L70 100 L62 78 L38 78 L30 100 L10 100 Z M50 17 L58 64 L42 64 Z" fill="none" stroke="#000" stroke-width="10.8" stroke-linejoin="miter" stroke-miterlimit="6"></path><path d="M47 0 L53 0 L90 100 L70 100 L62 78 L38 78 L30 100 L10 100 Z M50 17 L58 64 L42 64 Z" fill="none" stroke="#fff" stroke-width="7.2" stroke-linejoin="miter" stroke-miterlimit="6"></path></g><g transform="translate(546,0)"><path d="M18 0 L84 0 L84 22 L40 22 L28 22 L28 39 L72 39 L84 51 L84 88 L66 100 L0 100 L0 78 L44 78 L56 78 L56 61 L12 61 L0 49 L0 12 Z" fill="#fff" fill-rule="nonzero"></path><path d="M18 0 L84 0 L84 22 L40 22 L28 22 L28 39 L72 39 L84 51 L84 88 L66 100 L0 100 L0 78 L44 78 L56 78 L56 61 L12 61 L0 49 L0 12 Z" fill="none" stroke="#000" stroke-width="10.8" stroke-linejoin="miter" stroke-miterlimit="6"></path><path d="M18 0 L84 0 L84 22 L40 22 L28 22 L28 39 L72 39 L84 51 L84 88 L66 100 L0 100 L0 78 L44 78 L56 78 L56 61 L12 61 L0 49 L0 12 Z" fill="none" stroke="#fff" stroke-width="7.2" stroke-linejoin="miter" stroke-miterlimit="6"></path></g></mask></defs><g mask="url(#wm-3)"><path transform="translate(0,0)" d="M6 0 L54 0 L68 14 L68 34 L54 48 L30 50 L54 52 L72 66 L72 86 L54 100 L6 100 Z M28 14 L46 14 L54 22 L54 32 L46 40 L28 40 Z M28 60 L48 60 L56 68 L56 80 L48 88 L28 88 Z" fill="#DEB45A" fill-rule="evenodd"></path><path transform="translate(89,0)" d="M47 0 L53 0 L90 100 L70 100 L62 78 L38 78 L30 100 L10 100 Z M50 17 L58 64 L42 64 Z" fill="#DEB45A" fill-rule="evenodd"></path><path transform="translate(182,0)" d="M18 0 L84 0 L84 22 L40 22 L28 22 L28 39 L72 39 L84 51 L84 88 L66 100 L0 100 L0 78 L44 78 L56 78 L56 61 L12 61 L0 49 L0 12 Z" fill="#DEB45A" fill-rule="nonzero"></path><path transform="translate(271,0)" d="M6 0 L54 0 L68 14 L68 34 L54 48 L30 50 L54 52 L72 66 L72 86 L54 100 L6 100 Z M28 14 L46 14 L54 22 L54 32 L46 40 L28 40 Z M28 60 L48 60 L56 68 L56 80 L48 88 L28 88 Z" fill="#DEB45A" fill-rule="evenodd"></path><path transform="translate(360,0)" d="M47 0 L53 0 L90 100 L70 100 L62 78 L38 78 L30 100 L10 100 Z M50 17 L58 64 L42 64 Z" fill="#DEB45A" fill-rule="evenodd"></path><path transform="translate(453,0)" d="M47 0 L53 0 L90 100 L70 100 L62 78 L38 78 L30 100 L10 100 Z M50 17 L58 64 L42 64 Z" fill="#DEB45A" fill-rule="evenodd"></path><path transform="translate(546,0)" d="M18 0 L84 0 L84 22 L40 22 L28 22 L28 39 L72 39 L84 51 L84 88 L66 100 L0 100 L0 78 L44 78 L56 78 L56 61 L12 61 L0 49 L0 12 Z" fill="#DEB45A" fill-rule="nonzero"></path></g></g><g transform="translate(56.34000000000003,126) scale(0.6710065359477123)"><defs><mask id="tg-3" maskUnits="userSpaceOnUse" x="-12" y="-12" width="789" height="124"><g transform="translate(0,0)"><path d="M48 14 L8 14 L8 50 L48 50 L48 86 L8 86" fill="none" stroke="#fff" stroke-width="15" stroke-linecap="square" stroke-linejoin="miter" stroke-miterlimit="4"></path><path d="M48 14 L8 14 L8 50 L48 50 L48 86 L8 86" fill="none" stroke="#000" stroke-width="7" stroke-linecap="square" stroke-linejoin="miter" stroke-miterlimit="4"></path></g><g transform="translate(63,0)"><path d="M16 8 L44 8 L52 16 L52 84 L44 92 L16 92 L8 84 L8 16 Z" fill="none" stroke="#fff" stroke-width="15" stroke-linecap="square" stroke-linejoin="miter" stroke-miterlimit="4"></path><path d="M16 8 L44 8 L52 16 L52 84 L44 92 L16 92 L8 84 L8 16 Z" fill="none" stroke="#000" stroke-width="7" stroke-linecap="square" stroke-linejoin="miter" stroke-miterlimit="4"></path></g><g transform="translate(130,0)"><path d="M8 90 L8 12 L34 48 L60 12 L60 90" fill="none" stroke="#fff" stroke-width="15" stroke-linecap="square" stroke-linejoin="miter" stroke-miterlimit="4"></path><path d="M8 90 L8 12 L34 48 L60 12 L60 90" fill="none" stroke="#000" stroke-width="7" stroke-linecap="square" stroke-linejoin="miter" stroke-miterlimit="4"></path></g><g transform="translate(205,0)"><path d="M8 92 L30 10 L52 92 M15.5 64 L44.5 64" fill="none" stroke="#fff" stroke-width="15" stroke-linecap="square" stroke-linejoin="miter" stroke-miterlimit="4"></path><path d="M8 92 L30 10 L52 92 M15.5 64 L44.5 64" fill="none" stroke="#000" stroke-width="7" stroke-linecap="square" stroke-linejoin="miter" stroke-miterlimit="4"></path></g><g transform="translate(272,0)"><path d="M8 10 L8 92 L38 92" fill="none" stroke="#fff" stroke-width="15" stroke-linecap="square" stroke-linejoin="miter" stroke-miterlimit="4"></path><path d="M8 10 L8 92 L38 92" fill="none" stroke="#000" stroke-width="7" stroke-linecap="square" stroke-linejoin="miter" stroke-miterlimit="4"></path></g><g transform="translate(325,0)"><path d="M12 10 L12 92" fill="none" stroke="#fff" stroke-width="15" stroke-linecap="square" stroke-linejoin="miter" stroke-miterlimit="4"></path><path d="M12 10 L12 92" fill="none" stroke="#000" stroke-width="7" stroke-linecap="square" stroke-linejoin="miter" stroke-miterlimit="4"></path></g><g transform="translate(391,0)"><path d="M46 20 L38 10 L18 10 L8 22 L8 78 L18 90 L38 90 L46 80" fill="none" stroke="#fff" stroke-width="15" stroke-linecap="square" stroke-linejoin="miter" stroke-miterlimit="4"></path><path d="M46 20 L38 10 L18 10 L8 22 L8 78 L18 90 L38 90 L46 80" fill="none" stroke="#000" stroke-width="7" stroke-linecap="square" stroke-linejoin="miter" stroke-miterlimit="4"></path></g><g transform="translate(454,0)"><path d="M8 10 L8 80 L18 92 L42 92 L52 80 L52 10" fill="none" stroke="#fff" stroke-width="15" stroke-linecap="square" stroke-linejoin="miter" stroke-miterlimit="4"></path><path d="M8 10 L8 80 L18 92 L42 92 L52 80 L52 10" fill="none" stroke="#000" stroke-width="7" stroke-linecap="square" stroke-linejoin="miter" stroke-miterlimit="4"></path></g><g transform="translate(521,0)"><path d="M12 10 L12 92" fill="none" stroke="#fff" stroke-width="15" stroke-linecap="square" stroke-linejoin="miter" stroke-miterlimit="4"></path><path d="M12 10 L12 92" fill="none" stroke="#000" stroke-width="7" stroke-linecap="square" stroke-linejoin="miter" stroke-miterlimit="4"></path></g><g transform="translate(552,0)"><path d="M48 14 L8 14 L8 50 L48 50 L48 86 L8 86" fill="none" stroke="#fff" stroke-width="15" stroke-linecap="square" stroke-linejoin="miter" stroke-miterlimit="4"></path><path d="M48 14 L8 14 L8 50 L48 50 L48 86 L8 86" fill="none" stroke="#000" stroke-width="7" stroke-linecap="square" stroke-linejoin="miter" stroke-miterlimit="4"></path></g><g transform="translate(615,0)"><path d="M12 10 L12 92" fill="none" stroke="#fff" stroke-width="15" stroke-linecap="square" stroke-linejoin="miter" stroke-miterlimit="4"></path><path d="M12 10 L12 92" fill="none" stroke="#000" stroke-width="7" stroke-linecap="square" stroke-linejoin="miter" stroke-miterlimit="4"></path></g><g transform="translate(646,0)"><path d="M8 92 L8 10 L52 92 L52 10" fill="none" stroke="#fff" stroke-width="15" stroke-linecap="square" stroke-linejoin="miter" stroke-miterlimit="4"></path><path d="M8 92 L8 10 L52 92 L52 10" fill="none" stroke="#000" stroke-width="7" stroke-linecap="square" stroke-linejoin="miter" stroke-miterlimit="4"></path></g><g transform="translate(713,0)"><path d="M44 10 L8 10 L8 92 L44 92 M8 50 L36 50" fill="none" stroke="#fff" stroke-width="15" stroke-linecap="square" stroke-linejoin="miter" stroke-miterlimit="4"></path><path d="M44 10 L8 10 L8 92 L44 92 M8 50 L36 50" fill="none" stroke="#000" stroke-width="7" stroke-linecap="square" stroke-linejoin="miter" stroke-miterlimit="4"></path></g></mask></defs><g mask="url(#tg-3)"><path transform="translate(0,0)" d="M48 14 L8 14 L8 50 L48 50 L48 86 L8 86" fill="none" stroke="#DEB45A" stroke-width="15" stroke-linecap="square" stroke-linejoin="miter" stroke-miterlimit="4"></path><path transform="translate(63,0)" d="M16 8 L44 8 L52 16 L52 84 L44 92 L16 92 L8 84 L8 16 Z" fill="none" stroke="#DEB45A" stroke-width="15" stroke-linecap="square" stroke-linejoin="miter" stroke-miterlimit="4"></path><path transform="translate(130,0)" d="M8 90 L8 12 L34 48 L60 12 L60 90" fill="none" stroke="#DEB45A" stroke-width="15" stroke-linecap="square" stroke-linejoin="miter" stroke-miterlimit="4"></path><path transform="translate(205,0)" d="M8 92 L30 10 L52 92 M15.5 64 L44.5 64" fill="none" stroke="#DEB45A" stroke-width="15" stroke-linecap="square" stroke-linejoin="miter" stroke-miterlimit="4"></path><path transform="translate(272,0)" d="M8 10 L8 92 L38 92" fill="none" stroke="#DEB45A" stroke-width="15" stroke-linecap="square" stroke-linejoin="miter" stroke-miterlimit="4"></path><path transform="translate(325,0)" d="M12 10 L12 92" fill="none" stroke="#DEB45A" stroke-width="15" stroke-linecap="square" stroke-linejoin="miter" stroke-miterlimit="4"></path><path transform="translate(391,0)" d="M46 20 L38 10 L18 10 L8 22 L8 78 L18 90 L38 90 L46 80" fill="none" stroke="#DEB45A" stroke-width="15" stroke-linecap="square" stroke-linejoin="miter" stroke-miterlimit="4"></path><path transform="translate(454,0)" d="M8 10 L8 80 L18 92 L42 92 L52 80 L52 10" fill="none" stroke="#DEB45A" stroke-width="15" stroke-linecap="square" stroke-linejoin="miter" stroke-miterlimit="4"></path><path transform="translate(521,0)" d="M12 10 L12 92" fill="none" stroke="#DEB45A" stroke-width="15" stroke-linecap="square" stroke-linejoin="miter" stroke-miterlimit="4"></path><path transform="translate(552,0)" d="M48 14 L8 14 L8 50 L48 50 L48 86 L8 86" fill="none" stroke="#DEB45A" stroke-width="15" stroke-linecap="square" stroke-linejoin="miter" stroke-miterlimit="4"></path><path transform="translate(615,0)" d="M12 10 L12 92" fill="none" stroke="#DEB45A" stroke-width="15" stroke-linecap="square" stroke-linejoin="miter" stroke-miterlimit="4"></path><path transform="translate(646,0)" d="M8 92 L8 10 L52 92 L52 10" fill="none" stroke="#DEB45A" stroke-width="15" stroke-linecap="square" stroke-linejoin="miter" stroke-miterlimit="4"></path><path transform="translate(713,0)" d="M44 10 L8 10 L8 92 L44 92 M8 50 L36 50" fill="none" stroke="#DEB45A" stroke-width="15" stroke-linecap="square" stroke-linejoin="miter" stroke-miterlimit="4"></path></g></g></g></svg>