<svg xmlns="http://www.w3.org/2000/svg" viewBox="0 0 706 637.2172166918049" width="706" height="637.2172166918049" role="img" aria-label="Basbaas Somali Cuisine"><g transform="translate(40,40)"><g transform="translate(125.20000000000002,0) scale(1.4446153846153844)"><g fill="none" stroke="#DEB45A" stroke-width="5.5" stroke-linecap="round" stroke-linejoin="round"><line x1="96" y1="0" x2="96" y2="42"></line><path d="M 92 42 L 100 42 L 111 57 L 81 57 Z"></path><circle cx="96" cy="64" r="3.2"></circle><line x1="126" y1="0" x2="126" y2="58"></line><path d="M 122 58 L 130 58 L 141 73 L 111 73 Z"></path><circle cx="126" cy="80" r="3.2"></circle><line x1="156" y1="0" x2="156" y2="42"></line><path d="M 152 42 L 160 42 L 171 57 L 141 57 Z"></path><circle cx="156" cy="64" r="3.2"></circle><path d="M 50 96 L 50 162 M 64 96 L 64 162 M 50 104 L 64 104 M 50 114 L 64 114"></path><path d="M 50 162 L 84 162 M 52 162 L 52 216 M 82 162 L 82 216"></path><circle cx="86" cy="102" r="11"></circle><path d="M 84 113 Q 80 132 78 150"></path><path d="M 84 118 L 102 128 L 122 134"></path><ellipse cx="130" cy="134" rx="8" ry="2.6"></ellipse><path d="M 78 150 L 104 150 L 104 200"></path><path d="M 112 150 L 175 150"></path><ellipse cx="143" cy="150" rx="32" ry="6"></ellipse><line x1="143" y1="156" x2="143" y2="205"></line><line x1="128" y1="205" x2="158" y2="205"></line><circle cx="190" cy="98" r="11"></circle><path d="M 190 110 L 190 150"></path><path d="M 181 132 L 181 152 L 199 152 L 199 132"></path><path d="M 186 152 L 183 200 M 195 152 L 198 200"></path><path d="M 190 118 L 176 130 L 168 132"></path><ellipse cx="163" cy="132" rx="9" ry="2.6"></ellipse><line x1="20" y1="218" x2="240" y2="218"></line></g></g><g transform="translate(0,369.4846153846153) scale(1)"><defs><mask id="wm-5" maskUnits="userSpaceOnUse" x="-12" y="-12" width="650" height="124"><g transform="translate(0,0)"><path d="M6 0 L54 0 L68 14 L68 34 L54 48 L30 50 L54 52 L72 66 L72 86 L54 100 L6 100 Z M28 14 L46 14 L54 22 L54 32 L46 40 L28 40 Z M28 60 L48 60 L56 68 L56 80 L48 88 L28 88 Z" fill="#fff" fill-rule="evenodd"></path><path d="M6 0 L54 0 L68 14 L68 34 L54 48 L30 50 L54 52 L72 66 L72 86 L54 100 L6 100 Z M28 14 L46 14 L54 22 L54 32 L46 40 L28 40 Z M28 60 L48 60 L56 68 L56 80 L48 88 L28 88 Z" fill="none" stroke="#000" stroke-width="10.8" stroke-linejoin="miter" stroke-miterlimit="6"></path><path d="M6 0 L54 0 L68 14 L68 34 L54 48 L30 50 L54 52 L72 66 L72 86 L54 100 L6 100 Z M28 14 L46 14 L54 22 L54 32 L46 40 L28 40 Z M28 60 L48 60 L56 68 L56 80 L48 88 L28 88 Z" fill="none" stroke="#fff" stroke-width="7.2" stroke-linejoin="miter" stroke-miterlimit="6"></path></g><g transform="translate(89,0)"><path d="M47 0 L53 0 L90 100 L70 100 L62 78 L38 78 L30 100 L10 100 Z M50 17 L58 64 L42 64 Z" fill="#fff" fill-rule="evenodd"></path><path d="M47 0 L53 0 L90 100 L70 100 L62 78 L38 78 L30 100 L10 100 Z M50 17 L58 64 L42 64 Z" fill="none" stroke="#000" stroke-width="10.8" stroke-linejoin="miter" stroke-miterlimit="6"></path><path d="M47 0 L53 0 L90 100 L70 100 L62 78 L38 78 L30 100 L10 100 Z M50 17 L58 64 L42 64 Z" fill="none" stroke="#fff" stroke-width="7.2" stroke-linejoin="miter" stroke-miterlimit="6"></path></g><g transform="translate(182,0)"><path d="M18 0 L84 0 L84 22 L40 22 L28 22 L28 39 L72 39 L84 51 L84 88 L66 100 L0 100 L0 78 L44 78 L56 78 L56 61 L12 61 L0 49 L0 12 Z" fill="#fff" fill-rule="nonzero"></path><path d="M18 0 L84 0 L84 22 L40 22 L28 22 L28 39 L72 39 L84 51 L84 88 L66 100 L0 100 L0 78 L44 78 L56 78 L56 61 L12 61 L0 49 L0 12 Z" fill="none" stroke="#000" stroke-width="10.8" stroke-linejoin="miter" stroke-miterlimit="6"></path><path d="M18 0 L84 0 L84 22 L40 22 L28 22 L28 39 L72 39 L84 51 L84 88 L66 100 L0 100 L0 78 L44 78 L56 78 L56 61 L12 61 L0 49 L0 12 Z" fill="none" stroke="#fff" stroke-width="7.2" stroke-linejoin="miter" stroke-miterlimit="6"></path></g><g transform="translate(271,0)"><path d="M6 0 L54 0 L68 14 L68 34 L54 48 L30 50 L54 52 L72 66 L72 86 L54 100 L6 100 Z M28 14 L46 14 L54 22 L54 32 L46 40 L28 40 Z M28 60 L48 60 L56 68 L56 80 L48 88 L28 88 Z" fill="#fff" fill-rule="evenodd"></path><path d="M6 0 L54 0 L68 14 L68 34 L54 48 L30 50 L54 52 L72 66 L72 86 L54 100 L6 100 Z M28 14 L46 14 L54 22 L54 32 L46 40 L28 40 Z M28 60 L48 60 L56 68 L56 80 L48 88 L28 88 Z" fill="none" stroke="#000" stroke-width="10.8" stroke-linejoin="miter" stroke-miterlimit="6"></path><path d="M6 0 L54 0 L68 14 L68 34 L54 48 L30 50 L54 52 L72 66 L72 86 L54 100 L6 100 Z M28 14 L46 14 L54 22 L54 32 L46 40 L28 40 Z M28 60 L48 60 L56 68 L56 80 L48 88 L28 88 Z" fill="none" stroke="#fff" stroke-width="7.2" stroke-linejoin="miter" stroke-miterlimit="6"></path></g><g transform="translate(360,0)"><path d="M47 0 L53 0 L90 100 L70 100 L62 78 L38 78 L30 100 L10 100 Z M50 17 L58 64 L42 64 Z" fill="#fff" fill-rule="evenodd"></path><path d="M47 0 L53 0 L90 100 L70 100 L62 78 L38 78 L30 100 L10 100 Z M50 17 L58 64 L42 64 Z" fill="none" stroke="#000" stroke-width="10.8" stroke-linejoin="miter" stroke-miterlimit="6"></path><path d="M47 0 L53 0 L90 100 L70 100 L62 78 L38 78 L30 100 L10 100 Z M50 17 L58 64 L42 64 Z" fill="none" stroke="#fff" stroke-width="7.2" stroke-linejoin="miter" stroke-miterlimit="6"></path></g><g transform="translate(453,0)"><path d="M47 0 L53 0 L90 100 L70 100 L62 78 L38 78 L30 100 L10 100 Z M50 17 L58 64 L42 64 Z" fill="#fff" fill-rule="evenodd"></path><path d="M47 0 L53 0 L90 100 L70 100 L62 78 L38 78 L30 100 L10 100 Z M50 17 L58 64 L42 64 Z" fill="none" stroke="#000" stroke-width="10.8" stroke-linejoin="miter" stroke-miterlimit="6"></path><path d="M47 0 L53 0 L90 100 L70 100 L62 78 L38 78 L30 100 L10 100 Z M50 17 L58 64 L42 64 Z" fill="none" stroke="#fff" stroke-width="7.2" stroke-linejoin="miter" stroke-miterlimit="6"></path></g><g transform="translate(546,0)"><path d="M18 0 L84 0 L84 22 L40 22 L28 22 L28 39 L72 39 L84 51 L84 88 L66 100 L0 100 L0 78 L44 78 L56 78 L56 61 L12 61 L0 49 L0 12 Z" fill="#fff" fill-rule="nonzero"></path><path d="M18 0 L84 0 L84 22 L40 22 L28 22 L28 39 L72 39 L84 51 L84 88 L66 100 L0 100 L0 78 L44 78 L56 78 L56 61 L12 61 L0 49 L0 12 Z" fill="none" stroke="#000" stroke-width="10.8" stroke-linejoin="miter" stroke-miterlimit="6"></path><path d="M18 0 L84 0 L84 22 L40 22 L28 22 L28 39 L72 39 L84 51 L84 88 L66 100 L0 100 L0 78 L44 78 L56 78 L56 61 L12 61 L0 49 L0 12 Z" fill="none" stroke="#fff" stroke-width="7.2" stroke-linejoin="miter" stroke-miterlimit="6"></path></g></mask></defs><g mask="url(#wm-5)"><path transform="translate(0,0)" d="M6 0 L54 0 L68 14 L68 34 L54 48 L30 50 L54 52 L72 66 L72 86 L54 100 L6 100 Z M28 14 L46 14 L54 22 L54 32 L46 40 L28 40 Z M28 60 L48 60 L56 68 L56 80 L48 88 L28 88 Z" fill="#DEB45A" fill-rule="evenodd"></path><path transform="translate(89,0)" d="M47 0 L53 0 L90 100 L70 100 L62 78 L38 78 L30 100 L10 100 Z M50 17 L58 64 L42 64 Z" fill="#DEB45A" fill-rule="evenodd"></path><path transform="translate(182,0)" d="M18 0 L84 0 L84 22 L40 22 L28 22 L28 39 L72 39 L84 51 L84 88 L66 100 L0 100 L0 78 L44 78 L56 78 L56 61 L12 61 L0 49 L0 12 Z" fill="#DEB45A" fill-rule="nonzero"></path><path transform="translate(271,0)" d="M6 0 L54 0 L68 14 L68 34 L54 48 L30 50 L54 52 L72 66 L72 86 L54 100 L6 100 Z M28 14 L46 14 L54 22 L54 32 L46 40 L28 40 Z M28 60 L48 60 L56 68 L56 80 L48 88 L28 88 Z" fill="#DEB45A" fill-rule="evenodd"></path><path transform="translate(360,0)" d="M47 0 L53 0 L90 100 L70 100 L62 78 L38 78 L30 100 L10 100 Z M50 17 L58 64 L42 64 Z" fill="#DEB45A" fill-rule="evenodd"></path><path transform="translate(453,0)" d="M47 0 L53 0 L90 100 L70 100 L62 78 L38 78 L30 100 L10 100 Z M50 17 L58 64 L42 64 Z" fill="#DEB45A" fill-rule="evenodd"></path><path transform="translate(546,0)" d="M18 0 L84 0 L84 22 L40 22 L28 22 L28 39 L72 39 L84 51 L84 88 L66 100 L0 100 L0 78 L44 78 L56 78 L56 61 L12 61 L0 49 L0 12 Z" fill="#DEB45A" fill-rule="nonzero"></path></g></g><g transform="translate(56.34000000000003,495.4846153846153) scale(0.6710065359477123)"><defs><mask id="tg-5" maskUnits="userSpaceOnUse" x="-12" y="-12" width="789" height="124"><g transform="translate(0,0)"><path d="M48 14 L8 14 L8 50 L48 50 L48 86 L8 86" fill="none" stroke="#fff" stroke-width="15" stroke-linecap="square" stroke-linejoin="miter" stroke-miterlimit="4"></path><path d="M48 14 L8 14 L8 50 L48 50 L48 86 L8 86" fill="none" stroke="#000" stroke-width="7" stroke-linecap="square" stroke-linejoin="miter" stroke-miterlimit="4"></path></g><g transform="translate(63,0)"><path d="M16 8 L44 8 L52 16 L52 84 L44 92 L16 92 L8 84 L8 16 Z" fill="none" stroke="#fff" stroke-width="15" stroke-linecap="square" stroke-linejoin="miter" stroke-miterlimit="4"></path><path d="M16 8 L44 8 L52 16 L52 84 L44 92 L16 92 L8 84 L8 16 Z" fill="none" stroke="#000" stroke-width="7" stroke-linecap="square" stroke-linejoin="miter" stroke-miterlimit="4"></path></g><g transform="translate(130,0)"><path d="M8 90 L8 12 L34 48 L60 12 L60 90" fill="none" stroke="#fff" stroke-width="15" stroke-linecap="square" stroke-linejoin="miter" stroke-miterlimit="4"></path><path d="M8 90 L8 12 L34 48 L60 12 L60 90" fill="none" stroke="#000" stroke-width="7" stroke-linecap="square" stroke-linejoin="miter" stroke-miterlimit="4"></path></g><g transform="translate(205,0)"><path d="M8 92 L30 10 L52 92 M15.5 64 L44.5 64" fill="none" stroke="#fff" stroke-width="15" stroke-linecap="square" stroke-linejoin="miter" stroke-miterlimit="4"></path><path d="M8 92 L30 10 L52 92 M15.5 64 L44.5 64" fill="none" stroke="#000" stroke-width="7" stroke-linecap="square" stroke-linejoin="miter" stroke-miterlimit="4"></path></g><g transform="translate(272,0)"><path d="M8 10 L8 92 L38 92" fill="none" stroke="#fff" stroke-width="15" stroke-linecap="square" stroke-linejoin="miter" stroke-miterlimit="4"></path><path d="M8 10 L8 92 L38 92" fill="none" stroke="#000" stroke-width="7" stroke-linecap="square" stroke-linejoin="miter" stroke-miterlimit="4"></path></g><g transform="translate(325,0)"><path d="M12 10 L12 92" fill="none" stroke="#fff" stroke-width="15" stroke-linecap="square" stroke-linejoin="miter" stroke-miterlimit="4"></path><path d="M12 10 L12 92" fill="none" stroke="#000" stroke-width="7" stroke-linecap="square" stroke-linejoin="miter" stroke-miterlimit="4"></path></g><g transform="translate(391,0)"><path d="M46 20 L38 10 L18 10 L8 22 L8 78 L18 90 L38 90 L46 80" fill="none" stroke="#fff" stroke-width="15" stroke-linecap="square" stroke-linejoin="miter" stroke-miterlimit="4"></path><path d="M46 20 L38 10 L18 10 L8 22 L8 78 L18 90 L38 90 L46 80" fill="none" stroke="#000" stroke-width="7" stroke-linecap="square" stroke-linejoin="miter" stroke-miterlimit="4"></path></g><g transform="translate(454,0)"><path d="M8 10 L8 80 L18 92 L42 92 L52 80 L52 10" fill="none" stroke="#fff" stroke-width="15" stroke-linecap="square" stroke-linejoin="miter" stroke-miterlimit="4"></path><path d="M8 10 L8 80 L18 92 L42 92 L52 80 L52 10" fill="none" stroke="#000" stroke-width="7" stroke-linecap="square" stroke-linejoin="miter" stroke-miterlimit="4"></path></g><g transform="translate(521,0)"><path d="M12 10 L12 92" fill="none" stroke="#fff" stroke-width="15" stroke-linecap="square" stroke-linejoin="miter" stroke-miterlimit="4"></path><path d="M12 10 L12 92" fill="none" stroke="#000" stroke-width="7" stroke-linecap="square" stroke-linejoin="miter" stroke-miterlimit="4"></path></g><g transform="translate(552,0)"><path d="M48 14 L8 14 L8 50 L48 50 L48 86 L8 86" fill="none" stroke="#fff" stroke-width="15" stroke-linecap="square" stroke-linejoin="miter" stroke-miterlimit="4"></path><path d="M48 14 L8 14 L8 50 L48 50 L48 86 L8 86" fill="none" stroke="#000" stroke-width="7" stroke-linecap="square" stroke-linejoin="miter" stroke-miterlimit="4"></path></g><g transform="translate(615,0)"><path d="M12 10 L12 92" fill="none" stroke="#fff" stroke-width="15" stroke-linecap="square" stroke-linejoin="miter" stroke-miterlimit="4"></path><path d="M12 10 L12 92" fill="none" stroke="#000" stroke-width="7" stroke-linecap="square" stroke-linejoin="miter" stroke-miterlimit="4"></path></g><g transform="translate(646,0)"><path d="M8 92 L8 10 L52 92 L52 10" fill="none" stroke="#fff" stroke-width="15" stroke-linecap="square" stroke-linejoin="miter" stroke-miterlimit="4"></path><path d="M8 92 L8 10 L52 92 L52 10" fill="none" stroke="#000" stroke-width="7" stroke-linecap="square" stroke-linejoin="miter" stroke-miterlimit="4"></path></g><g transform="translate(713,0)"><path d="M44 10 L8 10 L8 92 L44 92 M8 50 L36 50" fill="none" stroke="#fff" stroke-width="15" stroke-linecap="square" stroke-linejoin="miter" stroke-miterlimit="4"></path><path d="M44 10 L8 10 L8 92 L44 92 M8 50 L36 50" fill="none" stroke="#000" stroke-width="7" stroke-linecap="square" stroke-linejoin="miter" stroke-miterlimit="4"></path></g></mask></defs><g mask="url(#tg-5)"><path transform="translate(0,0)" d="M48 14 L8 14 L8 50 L48 50 L48 86 L8 86" fill="none" stroke="#DEB45A" stroke-width="15" stroke-linecap="square" stroke-linejoin="miter" stroke-miterlimit="4"></path><path transform="translate(63,0)" d="M16 8 L44 8 L52 16 L52 84 L44 92 L16 92 L8 84 L8 16 Z" fill="none" stroke="#DEB45A" stroke-width="15" stroke-linecap="square" stroke-linejoin="miter" stroke-miterlimit="4"></path><path transform="translate(130,0)" d="M8 90 L8 12 L34 48 L60 12 L60 90" fill="none" stroke="#DEB45A" stroke-width="15" stroke-linecap="square" stroke-linejoin="miter" stroke-miterlimit="4"></path><path transform="translate(205,0)" d="M8 92 L30 10 L52 92 M15.5 64 L44.5 64" fill="none" stroke="#DEB45A" stroke-width="15" stroke-linecap="square" stroke-linejoin="miter" stroke-miterlimit="4"></path><path transform="translate(272,0)" d="M8 10 L8 92 L38 92" fill="none" stroke="#DEB45A" stroke-width="15" stroke-linecap="square" stroke-linejoin="miter" stroke-miterlimit="4"></path><path transform="translate(325,0)" d="M12 10 L12 92" fill="none" stroke="#DEB45A" stroke-width="15" stroke-linecap="square" stroke-linejoin="miter" stroke-miterlimit="4"></path><path transform="translate(391,0)" d="M46 20 L38 10 L18 10 L8 22 L8 78 L18 90 L38 90 L46 80" fill="none" stroke="#DEB45A" stroke-width="15" stroke-linecap="square" stroke-linejoin="miter" stroke-miterlimit="4"></path><path transform="translate(454,0)" d="M8 10 L8 80 L18 92 L42 92 L52 80 L52 10" fill="none" stroke="#DEB45A" stroke-width="15" stroke-linecap="square" stroke-linejoin="miter" stroke-miterlimit="4"></path><path transform="translate(521,0)" d="M12 10 L12 92" fill="none" stroke="#DEB45A" stroke-width="15" stroke-linecap="square" stroke-linejoin="miter" stroke-miterlimit="4"></path><path transform="translate(552,0)" d="M48 14 L8 14 L8 50 L48 50 L48 86 L8 86" fill="none" stroke="#DEB45A" stroke-width="15" stroke-linecap="square" stroke-linejoin="miter" stroke-miterlimit="4"></path><path transform="translate(615,0)" d="M12 10 L12 92" fill="none" stroke="#DEB45A" stroke-width="15" stroke-linecap="square" stroke-linejoin="miter" stroke-miterlimit="4"></path><path transform="translate(646,0)" d="M8 92 L8 10 L52 92 L52 10" fill="none" stroke="#DEB45A" stroke-width="15" stroke-linecap="square" stroke-linejoin="miter" stroke-miterlimit="4"></path><path transform="translate(713,0)" d="M44 10 L8 10 L8 92 L44 92 M8 50 L36 50" fill="none" stroke="#DEB45A" stroke-width="15" stroke-linecap="square" stroke-linejoin="miter" stroke-miterlimit="4"></path></g></g></g></svg>