<svg xmlns="http://www.w3.org/2000/svg" viewBox="0 0 512 512" width="512" height="512"><rect width="512" height="512" rx="112.64" fill="#2A6334"></rect><g transform="translate(76.80000000000001,94.03076923076924) scale(1.3784615384615384)"><svg xmlns="http://www.w3.org/2000/svg" viewBox="0 0 260 235" width="260" height="235" role="img" aria-label="Basbaas Somali Cuisine"><g transform="translate(0,0)"><g transform="translate(0,0) scale(1)"><g fill="none" stroke="#DEB45A" stroke-width="5.5" stroke-linecap="round" stroke-linejoin="round"><line x1="96" y1="0" x2="96" y2="42"></line><path d="M 92 42 L 100 42 L 111 57 L 81 57 Z"></path><circle cx="96" cy="64" r="3.2"></circle><line x1="126" y1="0" x2="126" y2="58"></line><path d="M 122 58 L 130 58 L 141 73 L 111 73 Z"></path><circle cx="126" cy="80" r="3.2"></circle><line x1="156" y1="0" x2="156" y2="42"></line><path d="M 152 42 L 160 42 L 171 57 L 141 57 Z"></path><circle cx="156" cy="64" r="3.2"></circle><path d="M 50 96 L 50 162 M 64 96 L 64 162 M 50 104 L 64 104 M 50 114 L 64 114"></path><path d="M 50 162 L 84 162 M 52 162 L 52 216 M 82 162 L 82 216"></path><circle cx="86" cy="102" r="11"></circle><path d="M 84 113 Q 80 132 78 150"></path><path d="M 84 118 L 102 128 L 122 134"></path><ellipse cx="130" cy="134" rx="8" ry="2.6"></ellipse><path d="M 78 150 L 104 150 L 104 200"></path><path d="M 112 150 L 175 150"></path><ellipse cx="143" cy="150" rx="32" ry="6"></ellipse><line x1="143" y1="156" x2="143" y2="205"></line><line x1="128" y1="205" x2="158" y2="205"></line><circle cx="190" cy="98" r="11"></circle><path d="M 190 110 L 190 150"></path><path d="M 181 132 L 181 152 L 199 152 L 199 132"></path><path d="M 186 152 L 183 200 M 195 152 L 198 200"></path><path d="M 190 118 L 176 130 L 168 132"></path><ellipse cx="163" cy="132" rx="9" ry="2.6"></ellipse><line x1="20" y1="218" x2="240" y2="218"></line></g></g></g></svg></g></svg>